<svg xmlns="http://www.w3.org/2000/svg" xmlns:xlink="http://www.w3.org/1999/xlink" width="110.37931060791016" height="34.68965530395508" style=""><rect id="backgroundrect" width="100%" height="100%" x="0" y="0" fill="none" stroke="none" class="" style=""/><defs><clipPath id="a"><path d="M1.915-7.824h244.107v62.328H1.915z" fill="none" id="svg_1"/></clipPath><clipPath id="b"><path d="M1.915-7.824h244.107v62.329H1.915z" fill="none" id="svg_2"/></clipPath></defs><g class="currentLayer" style=""><title>Layer 1</title><g class=""><path d="M18.372413781285285,33.42158712768555 a0.15000000000000002,0.15000000000000002 0 0 1 -0.15100000000000002,0.14900000000000002 a16.257,16.257 0 0 1 0,-32.514 a0.15000000000000002,0.15000000000000002 0 0 1 0.15100000000000002,0.14900000000000002 V5.397587127685547 a0.14700000000000002,0.14700000000000002 0 0 1 -0.14500000000000002,0.14600000000000002 a11.771,11.771 0 0 0 0,23.541 a0.14600000000000002,0.14600000000000002 0 0 1 0.14500000000000002,0.14500000000000002 z" fill="#fff" id="svg_5" class=""/><path d="M91.68941378128528,33.42158712768555 V29.227587127685545 a0.14600000000000002,0.14600000000000002 0 0 1 0.14500000000000002,-0.14500000000000002 a11.771,11.771 0 0 0 0,-23.541 a0.14700000000000002,0.14700000000000002 0 0 1 -0.14500000000000002,-0.14600000000000002 V1.205587127685547 a0.15000000000000002,0.15000000000000002 0 0 1 0.15100000000000002,-0.14900000000000002 a16.257,16.257 0 0 1 0,32.514 a0.15000000000000002,0.15000000000000002 0 0 1 -0.15100000000000002,-0.14900000000000002 " fill="#fff" id="svg_6" class=""/></g></g></svg>