<svg xmlns="http://www.w3.org/2000/svg" xmlns:xlink="http://www.w3.org/1999/xlink" width="243" height="42"><rect id="backgroundrect" width="100%" height="100%" x="0" y="0" fill="none" stroke="none" class="" style=""/><defs><clipPath id="a"><path d="M1.915-7.824h244.107v62.328H1.915z" fill="none" id="svg_1"/></clipPath><clipPath id="b"><path d="M1.915-7.824h244.107v62.329H1.915z" fill="none" id="svg_2"/></clipPath></defs><g class="currentLayer" style=""><title>Layer 1</title><g class=""><path d="M17.855172422528266,37.214689392089845 a0.15000000000000005,0.15000000000000005 0 0 1 -0.15100000000000005,0.14900000000000005 a16.257,16.257 0 0 1 0,-32.514 a0.15000000000000005,0.15000000000000005 0 0 1 0.15100000000000005,0.14900000000000005 V9.190689392089844 a0.14700000000000005,0.14700000000000005 0 0 1 -0.14500000000000005,0.14600000000000005 a11.771,11.771 0 0 0 0,23.541 a0.14600000000000005,0.14600000000000005 0 0 1 0.14500000000000005,0.14500000000000005 z" fill="#fff" id="svg_5" class=""/><path d="M91.17217242252826,37.214689392089845 V33.02068939208984 a0.14600000000000005,0.14600000000000005 0 0 1 0.14500000000000005,-0.14500000000000005 a11.771,11.771 0 0 0 0,-23.541 a0.14700000000000005,0.14700000000000005 0 0 1 -0.14500000000000005,-0.14600000000000005 V4.998689392089844 a0.15000000000000005,0.15000000000000005 0 0 1 0.15100000000000005,-0.14900000000000005 a16.257,16.257 0 0 1 0,32.514 a0.15000000000000005,0.15000000000000005 0 0 1 -0.15100000000000005,-0.14900000000000005 " fill="#fff" id="svg_6" class=""/><path d="M195.12417242252826,37.10068939208984 h4.286 a0.14500000000000005,0.14500000000000005 0 0 0 0.14500000000000005,-0.14500000000000005 V3.7336893920898433 a0.14500000000000005,0.14500000000000005 0 0 0 -0.14500000000000005,-0.14500000000000005 h-4.286 a0.14500000000000005,0.14500000000000005 0 0 0 -0.14600000000000005,0.14500000000000005 V36.955689392089845 a0.14500000000000005,0.14500000000000005 0 0 0 0.14600000000000005,0.14500000000000005 " fill="#fff" id="svg_7" class=""/><path d="M237.16117242252827,3.634689392089843 h4.5760000000000005 v17.277 H237.16117242252827 z" fill="#fff" id="svg_8" class=""/><path d="M213.51517242252828,19.79268939208984 l7.206,-6.77 a0.3070000000000001,0.3070000000000001 0 0 1 0.233,-0.08700000000000004 a7.023,7.023 0 0 1 6.2,6.6560000000000015 a0.3000000000000001,0.3000000000000001 0 0 0 0.2950000000000001,0.2850000000000001 h4.147 a0.3000000000000001,0.3000000000000001 0 0 0 0.3000000000000001,-0.2900000000000001 c0.055000000000000014,-2.388 -1.9420000000000002,-7.767 -6.821,-9.543 a0.2930000000000001,0.2930000000000001 0 0 1 -0.07600000000000003,-0.5 l5.333,-4.791 a0.14600000000000005,0.14600000000000005 0 0 0 -0.09400000000000006,-0.257 H209.05517242252827 a0.3000000000000001,0.3000000000000001 0 0 0 -0.3000000000000001,0.3000000000000001 v3.254 a0.3000000000000001,0.3000000000000001 0 0 0 0.3000000000000001,0.3000000000000001 h10.006 a0.3000000000000001,0.3000000000000001 0 0 1 0.2,0.516 l-11.463,10.5 a0.3000000000000001,0.3000000000000001 0 0 0 0.2,0.516 h5.307 a0.3000000000000001,0.3000000000000001 0 0 0 0.20700000000000005,-0.08400000000000003 " fill="#fff" id="svg_10" class=""/><path d="M219.57117242252826,33.052689392089846 c1.721,-5.116 12.37,-6.436 17.546,-2.219 a0.136,0.136 0 0 1 0.04400000000000002,0.10700000000000003 v2.159 a0.14700000000000005,0.14700000000000005 0 0 1 -0.14800000000000005,0.14700000000000005 h-17.3 a0.14900000000000005,0.14900000000000005 0 0 1 -0.14300000000000004,-0.19400000000000006 m17.369,-6.4 c-11.492,-4.837 -20.463,0.8 -21.886,6.481 a0.14500000000000005,0.14500000000000005 0 0 1 -0.14200000000000004,0.11000000000000003 h-1.429 a0.14800000000000005,0.14800000000000005 0 0 1 -0.14800000000000005,-0.14700000000000005 v-10.4 a0.14800000000000005,0.14800000000000005 0 0 0 -0.14800000000000005,-0.14800000000000005 h-4.28 a0.14800000000000005,0.14800000000000005 0 0 0 -0.14800000000000005,0.14800000000000005 V36.75868939208984 a0.14800000000000005,0.14800000000000005 0 0 0 0.14800000000000005,0.14800000000000005 h32.682 a0.14900000000000005,0.14900000000000005 0 0 0 0.14900000000000005,-0.14800000000000005 V22.694689392089842 a0.14900000000000005,0.14900000000000005 0 0 0 -0.14900000000000005,-0.14800000000000005 h-4.28 a0.14800000000000005,0.14800000000000005 0 0 0 -0.14800000000000005,0.14800000000000005 v3.835 a0.15000000000000005,0.15000000000000005 0 0 1 -0.22100000000000006,0.126 " fill="#fff" id="svg_11" class=""/><path d="M171.77717242252828,27.875689392089846 c-2.734,-5.5280000000000005 3.557,-11.155 10.664,-10.366 a0.7180000000000002,0.7180000000000002 0 0 0 0.5890000000000002,-0.2 l3.286,-3.352 a0.15000000000000005,0.15000000000000005 0 0 0 -0.11200000000000003,-0.255 h-9.808 a0.15000000000000005,0.15000000000000005 0 0 1 -0.1,-0.269 l10.884,-8.406 a0.15000000000000005,0.15000000000000005 0 0 0 -0.1,-0.269 H165.50517242252826 a0.15200000000000005,0.15200000000000005 0 0 0 -0.15500000000000005,0.15100000000000005 v3.589 a0.15400000000000005,0.15400000000000005 0 0 0 0.15500000000000005,0.15200000000000005 h9.791 a0.15000000000000005,0.15000000000000005 0 0 1 0.1,0.269 l-6.183,4.783 L164.50517242252826,17.320689392089847 a0.15000000000000005,0.15000000000000005 0 0 0 0.1,0.269 h4.628 a0.3240000000000001,0.3240000000000001 0 0 1 0.22400000000000006,0.5650000000000002 c-1.129,1.022 -4.681,6.7 -1.31,12.092 a11.2,11.2 0 0 0 9.346,5.207 c5.815,0 9.764,-2.5 11.917,-6.328 a0.15100000000000005,0.15100000000000005 0 0 0 -0.05100000000000002,-0.2 L185.96617242252827,27.120689392089844 a0.15400000000000005,0.15400000000000005 0 0 0 -0.21900000000000006,0.05400000000000002 c-2.878,5.281 -11.437,5.828 -13.97,0.7000000000000002 " fill="#fff" id="svg_12" class=""/><path d="M119.90617242252827,25.010689392089844 h17.262 a0.14500000000000005,0.14500000000000005 0 0 1 0.14500000000000005,0.14500000000000005 V37.979689392089846 a0.14500000000000005,0.14500000000000005 0 0 0 0.14500000000000005,0.14500000000000005 h4.286 a0.14500000000000005,0.14500000000000005 0 0 0 0.14500000000000005,-0.14500000000000005 V25.15568939208984 a0.14500000000000005,0.14500000000000005 0 0 1 0.14600000000000005,-0.14500000000000005 h17.261 a0.14500000000000005,0.14500000000000005 0 0 0 0.14500000000000005,-0.14500000000000005 V21.150689392089845 a0.14500000000000005,0.14500000000000005 0 0 0 -0.14500000000000005,-0.14500000000000005 h-39.39 a0.14500000000000005,0.14500000000000005 0 0 0 -0.14600000000000005,0.14500000000000005 v3.715 a0.14500000000000005,0.14500000000000005 0 0 0 0.14600000000000005,0.14500000000000005 " fill="#fff" id="svg_13" class=""/><path d="M139.61217242252826,6.309689392089844 c9.957,0 11.419,3.277 11.419,5.107 c0,3.616 -6.155,4.888 -11.435,4.888 c-9.459,0 -11.435,-2.653 -11.435,-4.888 c0,-3.617 6.172,-5.107 11.451,-5.107 m-0.011000000000000006,13.828 c9.724,0 16.234,-2.982 16.234,-8.579 c0,-7.7780000000000005 -10.435,-8.909 -16.234,-8.909 c-9.723,0 -16.234,3.3120000000000003 -16.234,8.909 c0,4.078 3.4,8.579 16.234,8.579 " fill="#fff" id="svg_14" class=""/></g></g></svg>