{
	"asset":{
		"version":"2.0",
		"generator":"Created using the official Cinema 4D glTF Exporter 1.000x284978"
	},
	"scenes":[{
		"nodes":[0]
	}],
	"buffers":[{
		"uri":"data:application/octet-stream;base64,",
		"byteLength":2016
	},
	{
		"uri":"data:application/octet-stream;base64,",
		"byteLength":760
	},
	{
		"uri":"data:application/octet-stream;base64,",
		"byteLength":1320
	}],
	"nodes":[{
		"name":"Boole",
		"translation":[0.0,
		33.143672943115237,
		0.0],
		"rotation":[0.0,
		-0.04361938685178757,
		0.0,
		0.9990482330322266],
		"scale":[0.10000000149011612,
		0.10000000149011612,
		0.10000000149011612],
		"children":[1,
		2,
		3]
	},
	{
		"name":"Boole-Mat",
		"mesh":0
	},
	{
		"name":"Boole-Mat",
		"translation":[0.0,
		0.0,
		0.0],
		"rotation":[0.0,
		-1.2246468525851679e-16,
		0.0,
		-1.0],
		"scale":[1.0,
		1.0,
		1.0],
		"mesh":1
	},
	{
		"name":"Boole-Mat.8",
		"mesh":2
	}],
	"meshes":[{
		"name":"Boole-Mat",
		"primitives":[{
			"attributes":{
				"POSITION":1,
				"NORMAL":2,
				"TEXCOORD_0":3
			},
			"indices":0,
			"material":0
		}]
	},
	{
		"name":"Boole-Mat",
		"primitives":[{
			"attributes":{
				"POSITION":5,
				"NORMAL":6,
				"TEXCOORD_0":7
			},
			"indices":4,
			"material":0
		}]
	},
	{
		"name":"Boole-Mat.8",
		"primitives":[{
			"attributes":{
				"POSITION":9,
				"NORMAL":10,
				"TEXCOORD_0":11
			},
			"indices":8,
			"material":1
		}]
	}],
	"samplers":[{
		"magFilter":9729,
		"minFilter":9729,
		"wrapS":10497,
		"wrapT":10497
	},
	{
		"magFilter":9729,
		"minFilter":9729,
		"wrapS":10497,
		"wrapT":10497
	}],
	"accessors":[{
		"bufferView":0,
		"type":"SCALAR",
		"componentType":5123,
		"min":[0],
		"count":192,
		"byteOffset":0,
		"max":[50]
	},
	{
		"bufferView":1,
		"type":"VEC3",
		"componentType":5126,
		"min":[-3.0,
		30.143672943115236,
		-0.25],
		"count":51,
		"byteOffset":0,
		"max":[3.0,
		36.143672943115237,
		0.25]
	},
	{
		"bufferView":1,
		"type":"VEC3",
		"componentType":5126,
		"min":[-1.0,
		-1.0,
		0.0],
		"count":51,
		"byteOffset":12,
		"max":[1.0,
		1.0,
		0.0]
	},
	{
		"bufferView":1,
		"type":"VEC2",
		"componentType":5126,
		"min":[0.0,
		0.44999998807907107],
		"count":51,
		"byteOffset":24,
		"max":[1.0,
		0.5499999523162842]
	},
	{
		"bufferView":2,
		"type":"SCALAR",
		"componentType":5123,
		"min":[0],
		"count":60,
		"byteOffset":0,
		"max":[19]
	},
	{
		"bufferView":3,
		"type":"VEC3",
		"componentType":5126,
		"min":[-50.0,
		-108.14366912841797,
		0.25],
		"count":20,
		"byteOffset":0,
		"max":[50.0,
		41.856327056884769,
		0.25]
	},
	{
		"bufferView":3,
		"type":"VEC3",
		"componentType":5126,
		"min":[0.0,
		0.0,
		1.0],
		"count":20,
		"byteOffset":12,
		"max":[0.0,
		0.0,
		1.0]
	},
	{
		"bufferView":3,
		"type":"VEC2",
		"componentType":5126,
		"min":[0.0,
		0.0],
		"count":20,
		"byteOffset":24,
		"max":[1.0,
		1.0]
	},
	{
		"bufferView":4,
		"type":"SCALAR",
		"componentType":5123,
		"min":[0],
		"count":84,
		"byteOffset":0,
		"max":[35]
	},
	{
		"bufferView":5,
		"type":"VEC3",
		"componentType":5126,
		"min":[-50.0,
		-108.14366912841797,
		-0.25],
		"count":36,
		"byteOffset":0,
		"max":[50.0,
		41.856327056884769,
		0.25]
	},
	{
		"bufferView":5,
		"type":"VEC3",
		"componentType":5126,
		"min":[-1.0,
		-1.0,
		-1.0],
		"count":36,
		"byteOffset":12,
		"max":[1.0,
		1.0,
		0.0]
	},
	{
		"bufferView":5,
		"type":"VEC2",
		"componentType":5126,
		"min":[0.0,
		0.0],
		"count":36,
		"byteOffset":24,
		"max":[1.0,
		1.0]
	}],
	"bufferViews":[{
		"buffer":0,
		"byteOffset":0,
		"byteLength":384,
		"target":34963
	},
	{
		"buffer":0,
		"byteOffset":384,
		"byteLength":1632,
		"target":34962,
		"byteStride":32
	},
	{
		"buffer":1,
		"byteOffset":0,
		"byteLength":120,
		"target":34963
	},
	{
		"buffer":1,
		"byteOffset":120,
		"byteLength":640,
		"target":34962,
		"byteStride":32
	},
	{
		"buffer":2,
		"byteOffset":0,
		"byteLength":168,
		"target":34963
	},
	{
		"buffer":2,
		"byteOffset":168,
		"byteLength":1152,
		"target":34962,
		"byteStride":32
	}],
	"images":[{
		"uri":"data:image/jpeg;base64,"
	},
	{
		"uri":"data:image/jpeg;base64,"
	}],
	"textures":[{
		"sampler":0,
		"source":0
	},
	{
		"sampler":1,
		"source":1
	}],
	"materials":[{
		"pbrMetallicRoughness":{
			"baseColorTexture":{
				"index":0
			},
			"baseColorFactor":[1.0,
			1.0,
			1.0,
			1.0],
			"metallicFactor":0.0,
			"roughnessFactor":0.5
		},
		"emissiveFactor":[0.0,
		0.0,
		0.0],
		"alphaMode":"OPAQUE",
		"doubleSided":false,
		"name":"Mat"
	},
	{
		"pbrMetallicRoughness":{
			"baseColorTexture":{
				"index":1
			},
			"baseColorFactor":[1.0,
			1.0,
			1.0,
			1.0],
			"metallicFactor":1.0,
			"roughnessFactor":1.0
		},
		"emissiveFactor":[0.0,
		0.0,
		0.0],
		"alphaMode":"OPAQUE",
		"doubleSided":false,
		"name":"Mat.8"
	}]
}