<svg xmlns="http://www.w3.org/2000/svg" width="51.847mm" height="47.754mm" viewBox="0 0 146.968 135.365">
  <g>
    <path d="M60.635,11.447a19.317,19.317,0,0,1,1.311,3.362c2.98,9.462,7.082,33.668-4.458,50.556C48.207,78.773,30.01,85.176,26.271,86.354L29.3,95.968,8.383,86.284,19.926,66.209l2.932,9.309c6.105-1.923,18.6-6.447,25.694-17.487,7.79-12.016,5.078-31.544,2.458-39.861a17.629,17.629,0,0,0-1.362-3.262Zm-37.3,73.567a27.669,27.669,0,0,0,3.658-.9c9.843-3.1,23.064-11.458,29.222-21.2C65.8,48.07,63.029,27.3,60.1,17.992a22.2,22.2,0,0,0-1.335-3.438l-6.1,1.922a16.345,16.345,0,0,1,.825,2.089C56.055,26.73,58.1,48.4,50.088,59.979,44.513,68.11,34.153,74.9,25.378,77.66a34.423,34.423,0,0,1-4.04,1.021l-2.091-6.639L11.74,85.227,25.376,91.5Z" fill="#fff"/>
    <path d="M30.955,114.279a19.3,19.3,0,0,1,2.256-2.816c6.7-7.312,25.617-22.968,46.011-21.418,16.253,1.334,30.9,13.892,33.786,16.541l6.812-7.43,2.072,22.956-23.157.042,6.6-7.194c-4.718-4.326-14.885-12.888-27.992-13.508-14.3-.739-29.857,11.374-35.75,17.8a17.574,17.574,0,0,0-2.143,2.811Zm82.362-4.479a27.839,27.839,0,0,0-2.609-2.717c-7.607-6.975-21.455-14.245-32.97-14.708-17.648-.877-34.25,11.9-40.846,19.1a22.254,22.254,0,0,0-2.31,2.875l4.717,4.325a16.179,16.179,0,0,1,1.4-1.759C46.48,110.6,64.223,98,78.259,99.147c9.828.763,20.885,6.342,27.666,12.559a34.4,34.4,0,0,1,2.905,2.988l-4.7,5.131,15.171-.092-1.384-14.945Z" fill="#fff"/>
    <path d="M133.316,88.442a19.279,19.279,0,0,1-3.567-.546c-9.684-2.15-32.7-10.7-41.553-29.138-6.972-14.742-3.418-33.7-2.568-37.53l-9.841-2.184L94.632,5.772l11.614,20.034L96.718,23.69c-1.387,6.249-3.719,19.335,2.3,31,6.51,12.754,24.778,20.169,33.291,22.059a17.5,17.5,0,0,0,3.506.451ZM88.256,19.354a27.775,27.775,0,0,0-1.048,3.618c-2.237,10.075-1.609,25.7,3.747,35.906C99.02,74.6,118.39,82.588,127.918,84.7a22.069,22.069,0,0,0,3.645.563l1.387-6.247a16.319,16.319,0,0,1-2.222-.33c-8.357-1.855-28.143-10.919-34.168-23.647C92.306,46.148,91.609,33.784,93.6,24.8a34.106,34.106,0,0,1,1.136-4.009l6.8,1.508L93.869,9.208,81.618,17.88Z" fill="#fff"/>
  </g>
</svg>
