<svg xmlns="http://www.w3.org/2000/svg" width="109.742mm" height="104.388mm" viewBox="0 0 311.08 295.903">
  <g>
    <path d="M58.39,30.378l32.329.124L80.588,41.335a72.882,72.882,0,0,0,6.126,6.428c14.319,13.391,37.762,25.511,58.689,27.343q2.178.2,4.407.2c29.112,0,64.153-24.59,76.007-37.266a34.319,34.319,0,0,0,3.011-3.72l9.961,9.315a47.231,47.231,0,0,1-4.982,6.078C220.162,64.3,186.742,89.679,150.816,89.679c-1.477,0-2.963-.044-4.447-.132-24.525-1.228-53.88-17.011-69.943-32.032a59.255,59.255,0,0,1-5.5-5.845l-9.9,10.584L58.39,30.378M227.25,19.271,220.7,28.64a24.6,24.6,0,0,1-2.125,2.627c-5.13,5.485-16.122,14.259-29.116,21.5-18.736,10.436-31.9,12.627-39.652,12.627-1.2,0-2.376-.052-3.5-.156h-.02l-.02,0c-16.813-1.472-38.041-11.292-52.013-24l3.7-3.961,15.52-16.595L90.757,20.59l-32.33-.123-10.806-.042.89,10.77,2.636,31.876L52.99,85.358,68.265,69.024l2.791-2.985a142.768,142.768,0,0,0,32.868,21.6c10.259,4.94,25.854,11,41.905,11.81,1.645.1,3.322.146,4.987.146,39.4,0,75.256-27.1,90.23-43.11A56.026,56.026,0,0,0,247.124,49l4.477-6.955-6.042-5.65-9.96-9.315-8.349-7.807Z" fill="#fff"/>
    <path d="M28.265,103.265a47.155,47.155,0,0,1,7.754,1.277c20.259,4.707,61.365,22.134,78.219,55.8,11.2,21.854,12.209,55.167,7.231,76.589a59.367,59.367,0,0,1-2.311,7.688l14.115,3.28-26.287,18.22-16.058-28.06,14.448,3.357a73.1,73.1,0,0,0,2.5-8.519c4.437-19.1,3.212-45.458-5.665-64.5-12.571-27.248-54.542-46.977-72.31-51.106a34.62,34.62,0,0,0-4.727-.748l3.087-13.284m-7.783-10.3-1.872,8.057-3.087,13.284-2.587,11.133,11.388.985a24.7,24.7,0,0,1,3.338.528c7.86,1.826,21.769,7.375,35.125,15.653,19.226,11.917,27.159,22.865,30.427,29.951l.009.018.008.018c7.132,15.3,9.242,38.591,5.224,57.044l-5.283-1.227L71.04,223.266l11.286,19.721,16.057,28.059,5.368,9.38,8.882-6.157,26.287-18.22,18.379-12.74-21.783-5.061-3.98-.925a142.806,142.806,0,0,0,2.268-39.262c-.852-11.355-3.4-27.887-10.724-42.195C104.6,118.992,61.074,100.187,38.263,94.887a55.838,55.838,0,0,0-9.519-1.522l-8.262-.4Z" fill="#fff"/>
    <path d="M256.552,92.63l28.922,13.655L269.2,134.222l-4.317-14.191a72.941,72.941,0,0,0-8.629,2.091c-18.757,5.706-40.974,19.948-53.025,37.155-17.312,24.511-13.413,70.724-8.1,88.175a34.379,34.379,0,0,0,1.716,4.468L183.8,255.889a47.317,47.317,0,0,1-2.772-7.354c-6.052-19.9-11.513-64.21,9.219-95.642,13.326-20.624,41.672-38.156,62.712-44.556a59.4,59.4,0,0,1,7.814-1.843L256.552,92.63M240.561,74.12l6.508,21.395,1.189,3.909a142.809,142.809,0,0,0-35.136,17.668c-9.406,6.414-22.447,16.888-31.177,30.38-22.693,34.444-17.219,81.543-10.4,103.948a55.918,55.918,0,0,0,3.442,9l3.784,7.355,7.914-2.407,13.047-3.969,10.935-3.326-4.84-10.354a24.707,24.707,0,0,1-1.212-3.155c-2.349-7.72-4.5-22.54-4.007-38.246.708-22.609,6.223-34.953,10.724-41.326l.012-.017.012-.016c9.681-13.825,28.8-27.3,46.79-33.046l1.578,5.189,6.612,21.738,11.436-19.634,16.271-27.936,5.439-9.338-9.772-4.614L260.783,83.667,240.561,74.12Z" fill="#fff"/>
  </g>
</svg>
