<svg xmlns="http://www.w3.org/2000/svg" width="158.185mm" height="150.467mm" viewBox="0 0 448.397 426.52">
  <g>
    <path d="M226.851,292.391a79.335,79.335,0,1,1,79.326-83.382h0a79.333,79.333,0,0,1-75.186,83.276Q228.915,292.391,226.851,292.391Zm.14-155.672q-1.961,0-3.937.1a76.334,76.334,0,1,0,80.126,72.342h0A76.43,76.43,0,0,0,226.991,136.719Z" fill="#fff"/>
    <g>
      <path d="M295.258,101.844c14.441-14.325,34.481-12.525,46.524-.385,12.424,12.525,11.157,26.584,5.583,35.663l-10.859-5.709c3.267-5.4,4.574-13.664-3.223-21.523-6.719-6.774-18.673-9.113-28.961,1.092-9.648,9.571-8.234,21.6-1.008,28.889,7.67,7.732,16.457,6.5,21.879,3.525l5.685,10.715c-8.677,5.183-23.576,7.032-36.19-5.683C282.139,135.776,280.817,116.168,295.258,101.844Z" fill="#fff"/>
      <path d="M313.509,173.5,374.365,150.2l4.279,11.18-60.856,23.294Z" fill="#fff"/>
      <path d="M320.122,193.732l43.837-6.215,1.68,11.851L321.8,205.582Zm66.412-3.416a7.379,7.379,0,1,1-8.431-6.258A7.374,7.374,0,0,1,386.534,190.316Z" fill="#fff"/>
      <path d="M343.73,226.2c-7.859-1.547-13.284,2.706-14.466,8.711a10.137,10.137,0,0,0,5.366,11.423l-5.479,9.654c-6.858-3.368-12.938-11.629-10.661-23.2,2.522-12.805,14.218-20.96,27.552-18.335,13.424,2.643,21.1,14.429,18.617,27.057-2.33,11.834-10.981,17.1-18.676,17.514l-1.464-11.205c3.829-.346,8.078-2.354,9.225-8.182C354.927,233.628,351.59,227.743,343.73,226.2Z" fill="#fff"/>
      <path d="M319.292,290.9l-31.37-1.043,8.848-11.7,20.553.874-1.178-7.1-9.332-7.057,7.22-9.548,51.973,39.305-7.22,9.547L329,281.654l3.907,22.138-9.445,12.49Z" fill="#fff"/>
      <path d="M240.305,351.719l-8.838,1.128-1.344-10.534,8.838-1.128-2.346-18.39c-.489-3.839-2.435-4.861-5.826-4.428a17.444,17.444,0,0,0-3.615.823l-1.252-9.819a17.737,17.737,0,0,1,6.558-1.925c8.57-1.094,14.575,3.312,15.658,11.793l2.607,20.443,7.945-1.014,1.344,10.535-2.232.285c-4.642.592-6.4,3.9-5.9,7.828l.786,6.16-10.713,1.367Z" fill="#fff"/>
      <path d="M174.291,320.229c3.5-13.13,15.707-20.121,28.49-16.711s19.884,15.551,16.38,28.683c-3.526,13.217-15.708,20.121-28.49,16.71S170.764,333.447,174.291,320.229Zm11.564,3.086c-2.157,8.087,1.971,13.566,7.622,15.075s11.961-1.187,14.119-9.275c2.133-8-1.97-13.566-7.623-15.075S188.013,315.227,185.855,323.315Z" fill="#fff"/>
      <path d="M129.2,216.243,86.132,228.306l48.02,5.615,2.791,9.966L99.172,273.531,141.9,261.566l3.2,11.439L83.657,290.213,79.24,274.441l39.2-30.885-49.417-5.6-4.563-16.292L125.9,204.457Z" fill="#fff"/>
      <path d="M124.926,151.036c12.76,4.671,18.624,17.455,14.077,29.877s-17.278,18.4-30.039,13.731c-12.846-4.7-18.624-17.454-14.076-29.878S112.08,146.334,124.926,151.036Zm-4.116,11.24c-7.858-2.877-13.686.74-15.7,6.233s.106,12.018,7.965,14.9c7.775,2.846,13.687-.741,15.7-6.233S128.671,165.153,120.81,162.276Z" fill="#fff"/>
      <path d="M165.3,140.54l-8.574,8.355-43.863-19.089,9.411-9.171,28.594,13.609-13.187-28.623,9.025-8.794Z" fill="#fff"/>
      <path d="M211.387,104.429c.4,7.964-4.119,16.313-14.4,19.907-11.47,4.009-24.461-.7-29.391-14.8-4.664-13.339,2.164-25.45,12.869-29.192,12.914-4.515,23.525,1.024,28.218,14.447.564,1.615.989,3.373,1.048,3.543l-29.906,10.455c2.185,5.433,8.254,7.793,13.861,5.832,5.268-1.841,7.236-5.484,7.288-9.7Zm-15.318-10c-1.625-4.1-5.769-7.231-12.226-4.974a9.58,9.58,0,0,0-6.465,11.508Z" fill="#fff"/>
    </g>
    <g>
      <path d="M206.441,236.2l-.818,24.071-8.765-8.2-31.184,33.339-5.615-5.251,31.185-33.339-8.717-8.154Z" fill="#fff"/>
      <path d="M232.624,182.65l-11.61-21.1,11.726,2.562,9.743-44.6,7.511,1.641-9.743,44.6,11.66,2.547Z" fill="#fff"/>
      <path d="M240.53,240.839l21.9,10.017-10.94,4.936L270.268,297.4l-7.006,3.161-18.775-41.61-10.879,4.908Z" fill="#fff"/>
    </g>
  </g>
</svg>
