<svg xmlns="http://www.w3.org/2000/svg" width="158.185mm" height="150.467mm" viewBox="0 0 448.397 426.52">
  <g>
    <path d="M81.5,44.119l47.283.181L113.968,60.144a106.551,106.551,0,0,0,8.959,9.4c20.943,19.585,55.228,37.311,85.836,39.99q3.184.293,6.445.288c42.578,0,93.827-35.964,111.163-54.5a50.364,50.364,0,0,0,4.4-5.441L345.344,63.5a69.136,69.136,0,0,1-7.288,8.888c-19.956,21.34-68.834,58.456-121.376,58.456-2.161,0-4.334-.063-6.5-.192-35.868-1.8-78.8-24.879-102.294-46.848a86.754,86.754,0,0,1-8.048-8.549L85.357,90.738,81.5,44.119M328.467,27.874l-9.575,13.7a35.888,35.888,0,0,1-3.109,3.842c-7.5,8.022-23.578,20.855-42.582,31.44-27.4,15.264-46.662,18.468-57.993,18.468-1.751,0-3.474-.077-5.123-.228l-.029,0-.029,0c-24.59-2.153-55.637-16.515-76.072-35.1l5.418-5.794,22.7-24.271L128.84,29.8l-47.283-.18-15.805-.06,1.3,15.751L70.91,91.933l2.7,32.6,22.34-23.889,4.082-4.365c13.018,11.718,29.977,22.87,48.071,31.583,15,7.225,37.813,16.083,61.288,17.273,2.405.142,4.858.214,7.294.214,57.626,0,110.065-39.633,131.965-63.051a81.958,81.958,0,0,0,8.888-10.943l6.548-10.172-8.836-8.263L340.677,39.292l-12.21-11.418Z" fill="#fff"/>
    <path d="M37.443,150.719a69.14,69.14,0,0,1,11.341,1.867c29.63,6.885,89.749,32.373,114.4,81.616,16.378,31.962,17.855,80.685,10.575,112.014a86.623,86.623,0,0,1-3.38,11.244l20.644,4.8-38.446,26.648-23.485-41.038,21.13,4.91a106.691,106.691,0,0,0,3.662-12.46c6.49-27.929,4.7-66.484-8.285-94.331-18.385-39.851-79.77-68.707-105.756-74.745a50.628,50.628,0,0,0-6.913-1.094l4.514-19.428M26.061,135.655l-2.738,11.783-4.515,19.428-3.783,16.283L31.68,184.59a35.931,35.931,0,0,1,4.882.772c11.5,2.671,31.837,10.786,51.371,22.893,28.12,17.43,39.721,33.441,44.5,43.8l.012.027.012.026c10.431,22.372,13.516,56.441,7.64,83.43l-7.727-1.8L100,326.225l16.5,28.842,23.485,41.039,7.851,13.717,12.99-9,38.445-26.648,26.881-18.632-31.858-7.4-5.821-1.353c3.639-17.133,4.818-37.395,3.316-57.422-1.245-16.607-4.977-40.786-15.684-61.712-27.032-53.93-90.686-81.432-124.049-89.184a81.761,81.761,0,0,0-13.921-2.226l-12.083-.585Z" fill="#fff"/>
    <path d="M371.321,135.165l42.3,19.971-23.8,40.858-6.313-20.754A106.7,106.7,0,0,0,370.89,178.3c-27.432,8.344-59.926,29.173-77.55,54.34-25.32,35.848-19.617,103.436-11.853,128.96A50.651,50.651,0,0,0,284,368.133l-19.082,5.8a69.125,69.125,0,0,1-4.054-10.755c-8.852-29.1-16.839-93.91,13.483-139.88,19.49-30.164,60.947-55.8,91.718-65.165a86.58,86.58,0,0,1,11.428-2.695l-6.168-20.277m-23.387-27.072,9.518,31.291,1.74,5.718c-16.658,5.414-34.8,14.525-51.387,25.839-13.758,9.381-32.83,24.7-45.6,44.432-33.189,50.376-25.184,119.26-15.216,152.028a81.756,81.756,0,0,0,5.033,13.17l5.535,10.756,11.574-3.52L288.215,382l15.993-4.865-7.079-15.143a36.1,36.1,0,0,1-1.773-4.614c-3.434-11.291-6.578-32.966-5.859-55.936,1.034-33.067,9.1-51.12,15.684-60.441l.017-.024.017-.024c14.159-20.22,42.12-39.926,68.432-48.331l2.308,7.589,9.671,31.792,16.725-28.715,23.8-40.858,7.955-13.657-14.293-6.748-42.3-19.971-29.576-13.963Z" fill="#fff"/>
  </g>
</svg>
