<svg xmlns="http://www.w3.org/2000/svg" width="28.625mm" height="13.463mm" viewBox="0 0 81.142 38.164">
  <g style="isolation: isolate">
    <g style="isolation: isolate">
      <path d="M.393,4.967H7.148V6.552H4.859A3.667,3.667,0,0,0,7.515,9.465c-.208.288-.784,1.184-.992,1.489A4.769,4.769,0,0,1,3.866,8.633a4.985,4.985,0,0,1-2.817,2.673c-.24-.288-.864-1.184-1.1-1.489A4.077,4.077,0,0,0,2.794,6.552H.393Zm1.5-2.4H5.739v1.6H1.9Zm9.108,14.726V13.643H2.922V12.01H13.006v5.282Zm.1-6.034V7.416H9.853V11.13H7.964V2.342H9.853V5.816H11.1V2.1h1.9v9.156Z" fill="#696969"/>
      <path d="M23.8,2.63a3.706,3.706,0,0,1,4,3.554c0,2.017-1.7,3.457-4,3.457-2.241,0-3.985-1.408-3.985-3.457A3.7,3.7,0,0,1,23.8,2.63Zm3.826,14.278a23.885,23.885,0,0,1-4.386.352c-.208,0-1.44-.016-1.665-.016V13.371H24.6V12.41H21.545V10.89h4.994v3.857H23.5v.993a17.907,17.907,0,0,0,3.922-.3ZM23.8,7.993a1.914,1.914,0,0,0,2.049-1.825A1.9,1.9,0,0,0,23.8,4.279a1.953,1.953,0,0,0-2.016,1.889A1.894,1.894,0,0,0,23.8,7.993Zm6.131,9.331V12.41H27.212V10.89h4.721v6.434Zm0-7.235V2.1h1.984v7.987Z" fill="#696969"/>
      <path d="M34.073,11.018V9.4H47.646v1.617ZM37.946,12.2v3.026h7.94V16.86H35.961V12.2Zm.1-9.748V6.2h7.8V7.816h-9.78V2.454Z" fill="#696969"/>
      <path d="M58.538,4.7A4.463,4.463,0,0,0,61.9,8.745L60.891,10.33a6.269,6.269,0,0,1-3.377-2.962,6.073,6.073,0,0,1-3.521,3.361L52.872,9.177A4.955,4.955,0,0,0,56.458,4.7H53.48V3.046h7.876V4.7Zm1.777,12.6c-2.945,0-4.786-1.248-4.786-3.185s1.841-3.2,4.786-3.2c2.977,0,4.8,1.264,4.8,3.2S63.292,17.292,60.315,17.292Zm0-4.77c-1.713,0-2.785.609-2.785,1.585,0,.96,1.072,1.569,2.785,1.569,1.761,0,2.817-.609,2.817-1.569C63.132,13.131,62.076,12.522,60.315,12.522Zm4.706-5.266V10.81H63.036V2.1h1.985V5.624h2.257V7.256Z" fill="#696969"/>
      <path d="M67.993,14.859V13.275h5.762V9.881h2v3.394h5.81v1.584ZM75.868,2.727v.912c0,2.657,2.769,4.465,5.106,4.978L80.045,10.2A8.2,8.2,0,0,1,74.779,6.3c-.816,1.937-3.137,3.393-5.25,3.921l-.912-1.632c2.449-.481,5.09-2.273,5.09-4.946V2.727Z" fill="#696969"/>
    </g>
  </g>
</svg>
