<svg xmlns="http://www.w3.org/2000/svg" width="66.586mm" height="13.463mm" viewBox="0 0 188.749 38.164">
  <g style="isolation: isolate">
    <g style="isolation: isolate">
      <path d="M-.008,14.635V13H13.566v1.632ZM12.173,10.7H1.353V9.081H3.5L3.1,5.624,5.13,5.4,5.4,9.081H8.156l.463-3.666,1.985.273-.56,3.393h2.129Zm-.112-6.082H1.449V3H12.061Z" fill="#696969"/>
      <path d="M22.475,10.905v2.242h5.811v1.6H14.712v-1.6h5.779V10.905H16.6v-4.9h7.827V4.359H16.569v-1.6h9.844V7.592H18.586V9.273H26.8v1.632Z" fill="#696969"/>
      <path d="M36.555,8.681H31.929v2.625a28.279,28.279,0,0,0,6.035-.448l.208,1.632a41,41,0,0,1-8.2.464V3.078h6.9v1.6H31.929V7.048h4.626Zm4.626.112v7.651H39.2V1.99h1.985V7.144h2.193V8.793Z" fill="#696969"/>
      <path d="M49.914,16.892V11.8H44.152V10.185H57.725V11.8h-5.81v5.09ZM52.075,4.247c.256,1.745,2.577,2.993,4.754,3.249l-.8,1.569A7.614,7.614,0,0,1,50.938,6.12C50.186,7.576,47.913,8.841,45.88,9.1l-.832-1.569c2.209-.256,4.5-1.536,4.754-3.281H45.64V2.63H56.22V4.247Z" fill="#696969"/>
      <path d="M70.011,2.758C69.963,6.872,67.5,9.1,64.392,10.265L63.336,8.681c2.529-.769,4.274-2.433,4.53-4.306H63.992V2.758ZM66.473,17.1V12.954H74.2v-.976H66.409V10.361h9.78v4.114H68.458v1.009h8.115V17.1Zm7.811-7.459V6.776h-1.3V9.561H71.115V2.23h1.873V5.143h1.3V1.99h1.921V9.641Z" fill="#696969"/>
      <path d="M86.811,12.6a42.308,42.308,0,0,1-8.163.448V7h4.626V4.663H78.632v-1.6h6.643v5.5H80.633v2.85a29.229,29.229,0,0,0,5.97-.448Zm1.841,3.826V8.681H86.283V7h2.369V1.99h1.985V16.428Z" fill="#696969"/>
      <path d="M102.22,12.506a43.727,43.727,0,0,1-8.532.464V6.984h4.85v-2.3H93.624v-1.6h6.9v5.49h-4.85v2.786a34.6,34.6,0,0,0,6.339-.464ZM103.308,1.99h1.985V16.428h-1.985Z" fill="#696969"/>
      <path d="M117.562,4.743v.048a4.614,4.614,0,0,0,3.425,4.482l-1.04,1.568a6.136,6.136,0,0,1-3.377-3.024,6.105,6.105,0,0,1-3.538,3.361L111.96,9.625a4.978,4.978,0,0,0,3.553-4.754V4.743H112.5V3.094h7.939V4.743Zm-2.577,11.989V11.754h2v3.361h7.875v1.617Zm7.587-3.937V7.544h-2.481V5.912h2.481V1.99h1.984V12.8Z" fill="#696969"/>
      <path d="M134.763,12.97A8.979,8.979,0,0,1,131.514,9a8.033,8.033,0,0,1-3.474,4.274l-1.232-1.457a7.557,7.557,0,0,0,3.649-6.659V2.983h2.065v2.08a7.257,7.257,0,0,0,3.426,6.435Zm2.465-10.98h1.985V16.428h-1.985Z" fill="#696969"/>
      <path d="M146.7,4.583a4.462,4.462,0,0,0,3.361,4.049l-1.008,1.585a6.26,6.26,0,0,1-3.377-2.961,6.075,6.075,0,0,1-3.522,3.361l-1.12-1.552a4.954,4.954,0,0,0,3.585-4.482H141.64V2.934h7.875V4.583Zm1.777,12.6c-2.945,0-4.786-1.248-4.786-3.185s1.841-3.2,4.786-3.2c2.977,0,4.8,1.264,4.8,3.2S151.452,17.18,148.475,17.18Zm0-4.77c-1.713,0-2.785.609-2.785,1.585,0,.96,1.072,1.569,2.785,1.569,1.761,0,2.817-.609,2.817-1.569C151.292,13.019,150.236,12.41,148.475,12.41Zm4.706-5.266V10.7H151.2V1.99h1.985V5.511h2.257V7.144Z" fill="#696969"/>
      <path d="M167.6,11.994a28.7,28.7,0,0,1-6.419.464V3.366h1.969V10.73a17.273,17.273,0,0,0,4.193-.385Zm3.969,4.434V8.921h-1.472v6.867h-1.873V2.23h1.873V7.288h1.472V1.99h1.905V16.428Z" fill="#696969"/>
      <path d="M181.13,16.908V12.09h-5.778v-1.6h13.574v1.6h-5.811v4.818Zm-3.97-7.859V2.534h1.985V4.3H185.1V2.518h2V9.049ZM185.1,5.9h-5.955V7.432H185.1Z" fill="#696969"/>
    </g>
  </g>
</svg>
